<svg id="exitIcon" xmlns="http://www.w3.org/2000/svg" width="42" height="42" viewBox="0 0 42 42">
  <g id="Path_61" data-name="Path 61" fill="none">
    <path d="M21,0A21,21,0,1,0,42,21,21,21,0,0,0,21,0Z" stroke="none"/>
    <path d="M 21 1 C 18.29957962036133 1 15.68045997619629 1.528659820556641 13.21540069580078 2.5712890625 C 10.83394050598145 3.578559875488281 8.694950103759766 5.020778656005859 6.857860565185547 6.857860565185547 C 5.020778656005859 8.694950103759766 3.578559875488281 10.83394050598145 2.5712890625 13.21540069580078 C 1.528659820556641 15.68045997619629 1 18.29957962036133 1 21 C 1 23.70042037963867 1.528659820556641 26.31954002380371 2.5712890625 28.78459930419922 C 3.578559875488281 31.16606140136719 5.020778656005859 33.30504989624023 6.857860565185547 35.14213943481445 C 8.694950103759766 36.97922134399414 10.83394050598145 38.42144012451172 13.21540069580078 39.4287109375 C 15.68045997619629 40.47134017944336 18.29957962036133 41 21 41 C 23.70042037963867 41 26.31954002380371 40.47134017944336 28.78459930419922 39.4287109375 C 31.16606140136719 38.42144012451172 33.30504989624023 36.97922134399414 35.14213943481445 35.14213943481445 C 36.97922134399414 33.30504989624023 38.42144012451172 31.16606140136719 39.4287109375 28.78459930419922 C 40.47134017944336 26.31954002380371 41 23.70042037963867 41 21 C 41 18.29957962036133 40.47134017944336 15.68045997619629 39.4287109375 13.21540069580078 C 38.42144012451172 10.83394050598145 36.97922134399414 8.694950103759766 35.14213943481445 6.857860565185547 C 33.30504989624023 5.020778656005859 31.16606140136719 3.578559875488281 28.78459930419922 2.5712890625 C 26.31954002380371 1.528659820556641 23.70042037963867 1 21 1 M 21 0 C 32.59798049926758 0 42 9.402019500732422 42 21 C 42 32.59798049926758 32.59798049926758 42 21 42 C 9.402019500732422 42 0 32.59798049926758 0 21 C 0 9.402019500732422 9.402019500732422 0 21 0 Z" stroke="none" fill="#db1477"/>
  </g>
  <g id="Group_150899" data-name="Group 150899" transform="translate(7.116 7.116)">
    <path id="Vector" d="M0,9.429,9.429,0" transform="translate(9.17 9.17)" fill="none" stroke="#db1477" stroke-linecap="round" stroke-linejoin="round" stroke-width="1.5" stroke-dasharray="0 0"/>
    <path id="Vector-2" data-name="Vector" d="M9.429,9.429,0,0" transform="translate(9.17 9.17)" fill="none" stroke="#db1477" stroke-linecap="round" stroke-linejoin="round" stroke-width="1.5" stroke-dasharray="0 0"/>
  </g>
</svg>
