<svg id="eye" xmlns="http://www.w3.org/2000/svg" width="22.748" height="22.75" viewBox="0 0 22.748 22.75">
  <g id="vuesax_outline_eye-slash" data-name="vuesax/outline/eye-slash">
    <g id="eye-slash">
      <path id="Vector" d="M1.8,7.61a.745.745,0,0,1-.53-.22A4.327,4.327,0,1,1,7.39,1.27a.747.747,0,0,1,0,1.06L2.33,7.39A.745.745,0,0,1,1.8,7.61ZM4.33,1.5A2.831,2.831,0,0,0,1.87,5.73L5.73,1.87A2.826,2.826,0,0,0,4.33,1.5Z" transform="translate(7.67 7.67)" fill="#db1477"/>
      <path id="Vector-2" data-name="Vector" d="M3.645,15.35a14.514,14.514,0,0,1-2.85-3.33,6.058,6.058,0,0,1,0-6C3.235,2.2,6.785,0,10.535,0a10.415,10.415,0,0,1,6.27,2.19.75.75,0,0,1-.9,1.2,8.9,8.9,0,0,0-5.37-1.89c-3.23,0-6.32,1.94-8.48,5.33a4.544,4.544,0,0,0,0,4.38,13.73,13.73,0,0,0,2.56,3,.756.756,0,0,1,.08,1.06.726.726,0,0,1-.56.26A.761.761,0,0,1,3.645,15.35Z" transform="translate(1.465 2.98)" fill="#db1477"/>
      <path id="Vector-3" data-name="Vector" d="M.458,13.04a.748.748,0,1,1,.58-1.38,8.393,8.393,0,0,0,3.29.68c3.23,0,6.32-1.94,8.48-5.33a4.544,4.544,0,0,0,0-4.38,14.244,14.244,0,0,0-1.01-1.4.76.76,0,0,1,.11-1.06.75.75,0,0,1,1.06.11,15.893,15.893,0,0,1,1.11,1.54,6.058,6.058,0,0,1,0,6c-2.44,3.82-5.99,6.02-9.74,6.02A9.874,9.874,0,0,1,.458,13.04Z" transform="translate(7.662 7.18)" fill="#db1477"/>
      <path id="Vector-4" data-name="Vector" d="M.014,3.7a.736.736,0,0,1,.6-.87A2.82,2.82,0,0,0,2.834.611a.758.758,0,0,1,.88-.6.751.751,0,0,1,.6.88,4.3,4.3,0,0,1-3.42,3.42.655.655,0,0,0-.14,0A.758.758,0,0,1,.014,3.7Z" transform="translate(11.936 11.959)" fill="#db1477"/>
      <path id="Vector-5" data-name="Vector" d="M.218,8.748a.754.754,0,0,1,0-1.06L7.687.218a.75.75,0,0,1,1.06,1.06l-7.47,7.47a.748.748,0,0,1-1.06,0Z" transform="translate(1.252 13.782)" fill="#db1477"/>
      <path id="Vector-6" data-name="Vector" d="M.218,8.748a.754.754,0,0,1,0-1.06L7.687.218a.75.75,0,0,1,1.06,1.06l-7.47,7.47a.748.748,0,0,1-1.06,0Z" transform="translate(13.783 1.252)" fill="#db1477"/>
      <path id="Vector-7" data-name="Vector" d="M0,0Z" fill="#db1477" opacity="0"/>
    </g>
  </g>
</svg>
