<svg xmlns="http://www.w3.org/2000/svg" width="19.043" height="18.237" viewBox="0 0 19.043 18.237">
  <g id="feather-shopping-cartR" transform="translate(-0.85 -0.85)">
    <path id="Path_16" data-name="Path 16" d="M14.382,31.191A1.191,1.191,0,1,1,13.191,30,1.191,1.191,0,0,1,14.382,31.191Z" transform="translate(-5.124 -13.946)" fill="none" stroke="#db1477" stroke-linecap="round" stroke-linejoin="round" stroke-width="1.3"/>
    <path id="Path_17" data-name="Path 17" d="M30.882,31.191A1.191,1.191,0,1,1,29.691,30,1.191,1.191,0,0,1,30.882,31.191Z" transform="translate(-14.021 -13.946)" fill="none" stroke="#db1477" stroke-linecap="round" stroke-linejoin="round" stroke-width="1.3"/>
    <path id="Path_18" data-name="Path 18" d="M1.5,1.5H4.726l2.161,8.739A1.573,1.573,0,0,0,8.5,11.29H16.34a1.573,1.573,0,0,0,1.613-1.051l1.29-5.476H5.533" transform="translate(0 0)" fill="none" stroke="#db1477" stroke-linecap="round" stroke-linejoin="round" stroke-width="1.3"/>
  </g>
</svg>
