<svg xmlns="http://www.w3.org/2000/svg" width="28.205" height="27.014" viewBox="0 0 28.205 27.014">
  <g id="feather-shopping-cart" transform="translate(-0.5 -0.5)">
    <path id="Path_16" data-name="Path 16" d="M14.382,31.191A1.191,1.191,0,1,1,13.191,30,1.191,1.191,0,0,1,14.382,31.191Z" transform="translate(-2.162 -5.868)" fill="none" stroke="#000" stroke-linecap="round" stroke-linejoin="round" stroke-width="2"/>
    <path id="Path_17" data-name="Path 17" d="M30.882,31.191A1.191,1.191,0,1,1,29.691,30,1.191,1.191,0,0,1,30.882,31.191Z" transform="translate(-5.56 -5.868)" fill="none" stroke="#000" stroke-linecap="round" stroke-linejoin="round" stroke-width="2"/>
    <path id="Path_18" data-name="Path 18" d="M1.5,1.5H6.265L9.457,17.449a2.382,2.382,0,0,0,2.382,1.918H23.417A2.382,2.382,0,0,0,25.8,17.449L27.7,7.456H7.456" transform="translate(0 0)" fill="none" stroke="#000" stroke-linecap="round" stroke-linejoin="round" stroke-width="2"/>
  </g>
</svg>
