<svg xmlns="http://www.w3.org/2000/svg" width="25" height="25" viewBox="0 0 25 25">
  <g id="home" transform="translate(0.5 0.5)">
    <g id="vuesax_linear_home" data-name="vuesax/linear/home">
      <g id="home-2" data-name="home">
        <path id="Vector" d="M0,3V0" transform="translate(12 15)" fill="none" stroke="#fff" stroke-linecap="round" stroke-linejoin="round" stroke-width="1.5" stroke-dasharray="0 0"/>
        <path id="Vector-2" data-name="Vector" d="M1.143,6.186A3.373,3.373,0,0,0,.033,9.1l1.33,7.96a3.19,3.19,0,0,0,3.04,2.57H15.6a3.209,3.209,0,0,0,3.04-2.57l1.33-7.96a3.429,3.429,0,0,0-1.11-2.91L11.933.646a3.225,3.225,0,0,0-3.86-.01Z" transform="translate(1.997 2.184)" fill="none" stroke="#fff" stroke-linecap="round" stroke-linejoin="round" stroke-width="1.5" stroke-dasharray="0 0"/>
        <path id="Vector-3" data-name="Vector" d="M24,0V24H0V0Z" fill="none" stroke="#fff" stroke-width="1" opacity="0"/>
      </g>
    </g>
  </g>
</svg>
