<svg id="imghand" xmlns="http://www.w3.org/2000/svg" xmlns:xlink="http://www.w3.org/1999/xlink" width="53.405" height="55.716" viewBox="0 0 53.405 55.716">
  <defs>
    <clipPath id="clip-path">
      <rect id="Rectangle_161302" data-name="Rectangle 161302" width="3.21" height="11.639" fill="#fff"/>
    </clipPath>
  </defs>
  <path id="Path_5554" data-name="Path 5554" d="M595.341,412.434a2.914,2.914,0,0,1,4.135-1.339l7.746,4.23,1.741.819.372-.719-7.6-5.831-.03-.023-6.3-5.158a2.914,2.914,0,0,1-.351-4.17l.2-.23a2.916,2.916,0,0,1,3.985-.385l11.915,9.29,1.372.951.74-.848-5.144-4.879-8.605-8.223a2.9,2.9,0,0,1-.215-4.052l.156-.18a2.918,2.918,0,0,1,4.112-.282l9.24,8.056.049.045,3.958,3.852,2,1.449.3-.2-2.77-4.278-7.951-8.064a2.914,2.914,0,0,1,.128-4.214l.291-.262a2.919,2.919,0,0,1,3.987.087l8.243,8.08a1.177,1.177,0,0,1,.117.133l5.267,6.959,2.68,1.337-.179-.925-3.312-4.535a3.151,3.151,0,0,1,4.829-4.029l7.013,7.383a1.2,1.2,0,0,1,.22.323l3.843,8.288a1.115,1.115,0,0,1,.054.139,20.261,20.261,0,0,1,.711,10.037,22.508,22.508,0,0,1-4.962,10.25c-2.277,2.612-5.13,4.425-8.225,4.557a9.115,9.115,0,0,1-3.114-.421,11.724,11.724,0,0,1-5.24-2.183l-11.847-8.823-12.529-8.416a2.91,2.91,0,0,1-1.041-3.6" transform="translate(-589.226 -380.164)" fill="#fff"/>
  <path id="Path_5555" data-name="Path 5555" d="M1095.687,298.812l.023.006a8.246,8.246,0,0,1,3.912,2.366,8.6,8.6,0,0,1,2.125,4.045c.541,2.435-.566,2.548-.8,1.832,0-.009-.007-.007-.007-.013a11.881,11.881,0,0,0-2.566-4.685,12.746,12.746,0,0,0-4.523-2.841.169.169,0,0,0-.026-.009c-.666-.253-.452-1.207,1.864-.7" transform="translate(-1064.93 -295.938)" fill="#fff"/>
  <path id="Path_5556" data-name="Path 5556" d="M1207.407,240.71l.014,0a5.374,5.374,0,0,1,2.548,1.541,5.6,5.6,0,0,1,1.383,2.634c.353,1.586-.367,1.66-.522,1.193,0-.006,0,0,0-.009a7.729,7.729,0,0,0-1.67-3.051,8.307,8.307,0,0,0-2.945-1.85.066.066,0,0,0-.018-.006c-.433-.165-.294-.786,1.214-.455" transform="translate(-1172.127 -240.614)" fill="#fff"/>
  <path id="Path_5557" data-name="Path 5557" d="M559.037,1099.4c0,.006,0,.017,0,.023a8.25,8.25,0,0,0,1.717,4.238,8.613,8.613,0,0,0,3.658,2.738c2.319.919,2.606-.157,1.936-.5-.009,0-.006-.008-.013-.009a11.86,11.86,0,0,1-4.22-3.274,12.742,12.742,0,0,1-2.09-4.915.128.128,0,0,1-.005-.028c-.146-.7-1.121-.637-.986,1.731" transform="translate(-555.572 -1057.032)" fill="#fff"/>
  <g id="Group_142180" data-name="Group 142180" transform="translate(36.927 25.479)" style="mix-blend-mode: multiply;isolation: isolate">
    <g id="Group_142179" data-name="Group 142179" transform="translate(0 0)">
      <g id="Group_142178" data-name="Group 142178" clip-path="url(#clip-path)">
        <path id="Path_5558" data-name="Path 5558" d="M1272.6,784.276a.134.134,0,0,1-.012.02,8.255,8.255,0,0,0-1.165,4.422,8.606,8.606,0,0,0,1.289,4.383c1.307,2.126,2.18,1.436,1.852.757,0-.009,0-.01,0-.015a11.875,11.875,0,0,1-1.418-5.15,12.745,12.745,0,0,1,1.271-5.188.163.163,0,0,1,.012-.025c.3-.645-.514-1.181-1.825.795" transform="translate(-1271.417 -782.893)" fill="#fff"/>
      </g>
    </g>
  </g>
  <path id="Path_5559" data-name="Path 5559" d="M485.521,1200.024s0,.01,0,.015a5.373,5.373,0,0,0,1.118,2.76,5.6,5.6,0,0,0,2.382,1.782c1.51.6,1.7-.1,1.261-.327-.005,0,0,0-.008-.006a7.738,7.738,0,0,1-2.748-2.132,8.3,8.3,0,0,1-1.361-3.2.106.106,0,0,1,0-.018c-.095-.453-.73-.415-.641,1.126" transform="translate(-485.512 -1153.633)" fill="#fff"/>
</svg>
