<svg xmlns="http://www.w3.org/2000/svg" width="23" height="23" viewBox="0 0 23 23">
  <g id="ionic-ios-eye" transform="translate(0.5 0.5)">
    <g id="vuesax_twotone_eye" data-name="vuesax/twotone/eye">
      <g id="eye">
        <path id="Vector" d="M3.282,6.563A3.282,3.282,0,1,1,6.563,3.282,3.278,3.278,0,0,1,3.282,6.563Z" transform="translate(7.718 7.718)" fill="none" stroke="#db1477" stroke-linecap="round" stroke-linejoin="round" stroke-width="1.5" stroke-dasharray="0 0" opacity="0.4"/>
        <path id="Vector-2" data-name="Vector" d="M17.32,9.964a4.882,4.882,0,0,0,0-4.758C15.221,1.907,12.205,0,8.97,0S2.718,1.907.619,5.207a4.882,4.882,0,0,0,0,4.758c2.1,3.3,5.115,5.207,8.351,5.207S15.221,13.264,17.32,9.964Z" transform="translate(2.03 3.41)" fill="none" stroke="#db1477" stroke-linecap="round" stroke-linejoin="round" stroke-width="1.5" stroke-dasharray="0 0"/>
        <path id="Vector-3" data-name="Vector" d="M22,0V22H0V0Z" transform="translate(22 22) rotate(180)" fill="none" stroke="#db1477" stroke-width="1" opacity="0"/>
      </g>
    </g>
  </g>
</svg>
