<svg id="ionic-notificationsW" xmlns="http://www.w3.org/2000/svg" width="24.057" height="29.255" viewBox="0 0 24.057 29.255">
  <path id="Path_26" data-name="Path 26" d="M19.91,28.336A.837.837,0,0,0,19.09,29a1.619,1.619,0,0,1-.323.7,1.221,1.221,0,0,1-1.04.381,1.242,1.242,0,0,1-1.04-.381,1.619,1.619,0,0,1-.323-.7.837.837,0,0,0-.821-.659h0a.843.843,0,0,0-.821,1.027,2.887,2.887,0,0,0,3,2.4,2.882,2.882,0,0,0,3-2.4.846.846,0,0,0-.821-1.027Z" transform="translate(-5.72 -2.505)" fill="#fff"/>
  <path id="Path_27" data-name="Path 27" d="M30.531,26.149c-1.159-1.522-3.439-2.415-3.439-9.231,0-7-3.1-9.808-5.991-10.483-.271-.067-.467-.157-.467-.442V5.775A1.842,1.842,0,0,0,18.828,3.93h-.045a1.842,1.842,0,0,0-1.806,1.845v.217c0,.277-.2.375-.467.442-2.9.682-5.991,3.487-5.991,10.483,0,6.816-2.28,7.7-3.439,9.231a1.488,1.488,0,0,0,1.2,2.385h21.08A1.489,1.489,0,0,0,30.531,26.149Zm-2.935.435H10.045a.329.329,0,0,1-.248-.547,9.08,9.08,0,0,0,1.58-2.5,16.938,16.938,0,0,0,1.076-6.614,11.467,11.467,0,0,1,1.573-6.509,4.829,4.829,0,0,1,2.913-2.07,2.64,2.64,0,0,0,1.4-.787.6.6,0,0,1,.9-.015,2.729,2.729,0,0,0,1.415.8,4.829,4.829,0,0,1,2.913,2.07,11.467,11.467,0,0,1,1.573,6.509,16.938,16.938,0,0,0,1.076,6.614,9.184,9.184,0,0,0,1.618,2.542A.31.31,0,0,1,27.6,26.584Z" transform="translate(-6.775 -3.93)" fill="#fff"/>
</svg>
