<svg xmlns="http://www.w3.org/2000/svg" width="53.445" height="53.445" viewBox="0 0 53.445 53.445">
  <g id="location-tick" transform="translate(-184.707)">
    <g id="Path_61" data-name="Path 61" transform="translate(184.707)" fill="none">
      <path d="M26.723,0A26.723,26.723,0,1,0,53.445,26.723,26.723,26.723,0,0,0,26.723,0Z" stroke="none"/>
      <path d="M 26.72262382507324 0.9999923706054688 C 23.24965476989746 0.9999923706054688 19.8810920715332 1.679954528808594 16.71052551269531 3.020992279052734 C 13.64761352539062 4.316493988037109 10.89662551879883 6.171333312988281 8.533973693847656 8.533973693847656 C 6.171333312988281 10.89662551879883 4.316493988037109 13.64761352539062 3.020992279052734 16.71052551269531 C 1.679954528808594 19.8810920715332 0.9999923706054688 23.24965476989746 0.9999923706054688 26.72262382507324 C 0.9999923706054688 30.19559288024902 1.679954528808594 33.56415557861328 3.020992279052734 36.73472595214844 C 4.316493988037109 39.79763412475586 6.171333312988281 42.54862213134766 8.533973693847656 44.91126251220703 C 10.89662551879883 47.27390289306641 13.64761352539062 49.12874221801758 16.71052551269531 50.42424392700195 C 19.8810920715332 51.76528549194336 23.24965476989746 52.44524383544922 26.72262382507324 52.44524383544922 C 30.19559288024902 52.44524383544922 33.56415557861328 51.76528549194336 36.73472595214844 50.42424392700195 C 39.79763412475586 49.12874221801758 42.54862213134766 47.27390289306641 44.91126251220703 44.91126251220703 C 47.27390289306641 42.54862213134766 49.12874221801758 39.79763412475586 50.42424392700195 36.73472595214844 C 51.76528549194336 33.56415557861328 52.44524383544922 30.19559288024902 52.44524383544922 26.72262382507324 C 52.44524383544922 23.24965476989746 51.76528549194336 19.8810920715332 50.42424392700195 16.71052551269531 C 49.12874221801758 13.64761352539062 47.27390289306641 10.89662551879883 44.91126251220703 8.533973693847656 C 42.54862213134766 6.171333312988281 39.79763412475586 4.316493988037109 36.73472595214844 3.020992279052734 C 33.56415557861328 1.679954528808594 30.19559288024902 0.9999923706054688 26.72262382507324 0.9999923706054688 M 26.72262382507324 -7.62939453125e-06 C 41.48112487792969 -7.62939453125e-06 53.44524383544922 11.9641227722168 53.44524383544922 26.72262382507324 C 53.44524383544922 41.48112487792969 41.48112487792969 53.44524383544922 26.72262382507324 53.44524383544922 C 11.9641227722168 53.44524383544922 -7.62939453125e-06 41.48112487792969 -7.62939453125e-06 26.72262382507324 C -7.62939453125e-06 11.9641227722168 11.9641227722168 -7.62939453125e-06 26.72262382507324 -7.62939453125e-06 Z" stroke="none" fill="#db1477"/>
    </g>
    <g id="vuesax_bulk_location-tick" data-name="vuesax/bulk/location-tick" transform="translate(198.257 11.877)">
      <g id="vuesax_bulk_location-tick-2" data-name="vuesax/bulk/location-tick">
        <g id="location-tick-2" data-name="location-tick">
          <path id="Vector" d="M13.174,0h-.015A12.787,12.787,0,0,0,.377,9.932c-1.752,7.66,2.939,14.148,7.185,18.246a8.05,8.05,0,0,0,11.209,0c4.246-4.1,8.937-10.57,7.2-18.231C24.427,3.073,18.429,0,13.174,0Z" transform="translate(0 0)" fill="#db1477"/>
          <path id="Vector-2" data-name="Vector" d="M2.55,7.835.323,5.608A1.113,1.113,0,0,1,1.9,4.034l1.44,1.44L8.488.323A1.113,1.113,0,0,1,10.062,1.9L4.123,7.835a1.111,1.111,0,0,1-1.574,0Z" transform="translate(7.98 9.282)" fill="#fff"/>
        </g>
      </g>
    </g>
  </g>
</svg>
