<svg xmlns="http://www.w3.org/2000/svg" xmlns:xlink="http://www.w3.org/1999/xlink" width="160.432" height="78.3" viewBox="0 0 160.432 78.3">
  <defs>
    <linearGradient id="linear-gradient" y1="0.5" x2="1" y2="0.5" gradientUnits="objectBoundingBox">
      <stop offset="0" stop-color="#24366f"/>
      <stop offset="1" stop-color="#207db7"/>
    </linearGradient>
  </defs>
  <g id="logoW" transform="translate(0.004)">
    <path id="Path_28" data-name="Path 28" d="M137.951,73.6q-6.466,0-9.877-3.9T124.66,58.41V32.81q0-6.923,3.384-10.5t9.907-3.585q6.52,0,9.907,3.585t3.384,10.5v25.6q0,7.38-3.414,11.285T137.951,73.6Zm.091-9.919c1.634,0,2.451-1.579,2.451-4.749V32.621q0-3.978-2.39-3.981-2.7,0-2.695,4.073V58.989a7.759,7.759,0,0,0,.61,3.6,2.13,2.13,0,0,0,2.018,1.085Z" transform="translate(-48.66 -7.307)" fill="#fff"/>
    <path id="Path_29" data-name="Path 29" d="M175.4,73.425V19.53h11.084l4.963,25.814V19.53H201.86v53.9H191.325l-5.389-26.948V73.425Z" transform="translate(-68.465 -7.623)" fill="#fff"/>
    <path id="Path_30" data-name="Path 30" d="M226.626,73.425V19.53h21.558V29.943h-10.6v10.5h10.169V50.587H237.588v12.34h11.3v10.5H226.62Z" transform="translate(-88.458 -7.623)" fill="#fff"/>
    <path id="Path_31" data-name="Path 31" d="M129.832,122.077a2.435,2.435,0,0,1-1.92-.665,3.154,3.154,0,0,1-.591-2.116v-.951h1.927v1.219a1.153,1.153,0,0,0,.1.53.37.37,0,0,0,.36.189.408.408,0,0,0,.366-.152.965.965,0,0,0,.1-.506,2.624,2.624,0,0,0-.091-.75,1.8,1.8,0,0,0-.3-.573,6.722,6.722,0,0,0-.6-.64l-.872-.829a3.02,3.02,0,0,1-.4-4.012,2.128,2.128,0,0,1,1.677-.652,2.292,2.292,0,0,1,1.9.713,3.5,3.5,0,0,1,.561,2.17h-1.981v-.671a.4.4,0,0,0-.116-.311.5.5,0,0,0-.646.018.5.5,0,0,0-.11.335,1.082,1.082,0,0,0,.11.445,1.943,1.943,0,0,0,.439.549l1.122,1.079a6.49,6.49,0,0,1,.622.677,2.781,2.781,0,0,1,.451.829,3.376,3.376,0,0,1,.171,1.152,3.943,3.943,0,0,1-.506,2.152,1.939,1.939,0,0,1-1.762.774Z" transform="translate(-49.698 -43.783)" fill="#fff"/>
    <path id="Path_32" data-name="Path 32" d="M160.568,122.036v-7.865H159.41V112.3h4.262v1.872h-1.158v7.865h-1.945Z" transform="translate(-62.224 -43.834)" fill="#fff"/>
    <path id="Path_33" data-name="Path 33" d="M193.282,122.073a2.253,2.253,0,0,1-1.786-.707,3.021,3.021,0,0,1-.616-2.036V114.7a2.646,2.646,0,0,1,.61-1.9,2.809,2.809,0,0,1,3.585,0,2.666,2.666,0,0,1,.61,1.9v4.627a3.011,3.011,0,0,1-.616,2.036,2.244,2.244,0,0,1-1.786.707Zm.018-1.792c.293,0,.445-.287.445-.86v-4.755c0-.482-.146-.719-.433-.719-.323,0-.488.244-.488.738v4.749a1.426,1.426,0,0,0,.11.652.379.379,0,0,0,.366.2Z" transform="translate(-74.507 -43.779)" fill="#fff"/>
    <path id="Path_34" data-name="Path 34" d="M223.756,122.036V112.3h2.987a1.652,1.652,0,0,1,1.128.341,1.681,1.681,0,0,1,.512.951,7.06,7.06,0,0,1,.128,1.433,3.274,3.274,0,0,1-.2,1.274,1.171,1.171,0,0,1-.762.658.877.877,0,0,1,.646.457,2.093,2.093,0,0,1,.183.939v3.682h-1.92v-3.81c0-.287-.061-.457-.177-.53a1.172,1.172,0,0,0-.561-.1v4.445H223.75Zm1.981-6.133h.469q.4,0,.4-.878a1.973,1.973,0,0,0-.091-.75.341.341,0,0,0-.329-.177h-.451v1.8Z" transform="translate(-87.338 -43.834)" fill="#fff"/>
    <path id="Path_35" data-name="Path 35" d="M256.34,122.036V112.3h3.9v1.884h-1.914v1.9h1.835v1.829h-1.835v2.231h2.042v1.9Z" transform="translate(-100.058 -43.834)" fill="#fff"/>
    <path id="Path_36" data-name="Path 36" d="M72.107,42.73v.012H63.2Z" transform="translate(-24.67 -16.679)" fill="url(#linear-gradient)"/>
    <path id="Path_37" data-name="Path 37" d="M63.2,42.742h8.907V42.73l-8.907.012Z" transform="translate(-24.67 -16.679)" fill="url(#linear-gradient)"/>
    <path id="Path_38" data-name="Path 38" d="M63.2,42.742h8.907V42.73l-8.907.012Z" transform="translate(-24.67 -16.679)" fill="url(#linear-gradient)"/>
    <path id="Path_39" data-name="Path 39" d="M63.2,42.742h8.907V42.73l-8.907.012Z" transform="translate(-24.67 -16.679)" fill="url(#linear-gradient)"/>
    <path id="Path_40" data-name="Path 40" d="M19.288,18.624l-1.524-.037a19.911,19.911,0,0,0-.726,6.152l.037,1.2a1.7,1.7,0,0,1,.665-.134,1.644,1.644,0,0,1,.756.177l-.043-1.293A17.448,17.448,0,0,1,19.288,18.624ZM65.831,73.647,47.437,76.269v-43.1H38.53V19.057l-18.6-.421a16.8,16.8,0,0,0-.866,6.036l.061,1.841a.232.232,0,0,1,.03.037,1.727,1.727,0,0,1,.311.988,1.779,1.779,0,0,1-3.006,1.256,1.875,1.875,0,0,1-.14-2.244,1.585,1.585,0,0,1,.159-.2l-.049-1.6a20.52,20.52,0,0,1,.7-6.182L1.065,18.21A1.044,1.044,0,0,0,0,19.326,505.578,505.578,0,0,1,0,83.872v.073a1.13,1.13,0,0,0,1.189,1.134l2.317-.116a599.536,599.536,0,0,1,62.808.159h.018a.332.332,0,0,0,.335-.366l-.841-11.108Z" transform="translate(0 -7.108)" fill="#fff"/>
    <path id="Path_41" data-name="Path 41" d="M73.751,24.234a20.513,20.513,0,0,0-.677-4.634H71.58a18,18,0,0,1,.756,4.682l.043,1.286a1.645,1.645,0,0,1,.549-.091,1.7,1.7,0,0,1,.872.238ZM88.919,19.6H73.708a21.493,21.493,0,0,1,.652,4.615l.073,2.152a1.655,1.655,0,0,1,.226.841,1.78,1.78,0,0,1-3.006,1.256,1.856,1.856,0,0,1-.14-2.244,1.537,1.537,0,0,1,.262-.3L71.727,24.3a17.6,17.6,0,0,0-.78-4.7H64.63V32.842l8.907-.018V75.763l17.437-2.707.079-51.316A2.13,2.13,0,0,0,88.919,19.6Z" transform="translate(-25.229 -7.65)" fill="#fff"/>
    <path id="Path_42" data-name="Path 42" d="M59.511,19.071a1.007,1.007,0,0,1-.207.652.636.636,0,0,1-.476.256H58.81a.828.828,0,0,1-.719-.866l-.037-1.195-.043-1.286a18,18,0,0,0-.756-4.682,14.489,14.489,0,0,0-3.817-6.316A14,14,0,0,0,43.172,1.786a13.813,13.813,0,0,0-12.98,9.73,17.448,17.448,0,0,0-.835,6.066l.043,1.293.043,1.189a1.013,1.013,0,0,1-.207.658.626.626,0,0,1-.476.256.567.567,0,0,1-.488-.226,1.017,1.017,0,0,1-.25-.64l-.043-1.28-.037-1.2a19.911,19.911,0,0,1,.726-6.152A15.244,15.244,0,0,1,43.117.006C43.306,0,43.495,0,43.684,0c7.353,0,13.145,4.762,15.065,11.95a20.513,20.513,0,0,1,.677,4.634l.049,1.482.037,1.006Z" transform="translate(-10.903)" fill="#fff"/>
  </g>
</svg>
