<svg id="Mastercard-logo" xmlns="http://www.w3.org/2000/svg" width="81.264" height="63.111" viewBox="0 0 81.264 63.111">
  <path id="XMLID_1775_" d="M60.479,668.653v-4.188a2.456,2.456,0,0,0-2.651-2.651A2.746,2.746,0,0,0,55.452,663a2.45,2.45,0,0,0-2.237-1.187,2.25,2.25,0,0,0-1.952.976v-.838H49.8v6.7h1.464v-3.7c0-1.187.626-1.749,1.6-1.749s1.464.626,1.464,1.749v3.7h1.464v-3.7a1.547,1.547,0,0,1,1.6-1.749c.976,0,1.464.626,1.464,1.749v3.7Zm21.715-6.7H79.819v-2.025H78.355v2.025H77.029v1.326h1.326v3.074c0,1.537.626,2.44,2.3,2.44a3.936,3.936,0,0,0,1.814-.488l-.423-1.261a2.341,2.341,0,0,1-1.261.35c-.7,0-.976-.423-.976-1.114v-3h2.375v-1.326Zm12.427-.146a1.984,1.984,0,0,0-1.749.976v-.838H91.408v6.7h1.464v-3.774c0-1.114.488-1.749,1.4-1.749a4.5,4.5,0,0,1,.911.138l.423-1.4a5.808,5.808,0,0,0-.984-.057Zm-18.779.7a4.8,4.8,0,0,0-2.725-.7c-1.675,0-2.79.838-2.79,2.163,0,1.114.838,1.749,2.3,1.952l.7.073c.764.138,1.187.35,1.187.7,0,.488-.561.838-1.537.838a3.859,3.859,0,0,1-2.237-.7l-.7,1.114a4.907,4.907,0,0,0,2.863.838c1.952,0,3.074-.911,3.074-2.163,0-1.187-.911-1.814-2.3-2.025l-.7-.073c-.626-.073-1.114-.211-1.114-.626,0-.488.488-.764,1.261-.764a5.038,5.038,0,0,1,2.1.561l.618-1.187Zm38.949-.7a1.984,1.984,0,0,0-1.749.976v-.838h-1.464v6.7h1.464v-3.774c0-1.114.488-1.749,1.4-1.749a4.5,4.5,0,0,1,.911.138l.423-1.383a4.465,4.465,0,0,0-.984-.073Zm-18.706,3.5a3.354,3.354,0,0,0,3.562,3.489,3.506,3.506,0,0,0,2.375-.765l-.7-1.187a2.8,2.8,0,0,1-1.749.626,1.982,1.982,0,0,1-2.025-2.163,2.054,2.054,0,0,1,2.025-2.163,2.863,2.863,0,0,1,1.749.626l.7-1.187a3.465,3.465,0,0,0-2.375-.765,3.349,3.349,0,0,0-3.562,3.489Zm13.541,0v-3.351h-1.464v.838a2.529,2.529,0,0,0-2.1-.976,3.492,3.492,0,0,0,0,6.978,2.367,2.367,0,0,0,2.1-.976v.838h1.464V665.3Zm-5.376,0a2.03,2.03,0,1,1,4.05,0,2.03,2.03,0,1,1-4.05,0Zm-17.518-3.5a3.491,3.491,0,0,0,.073,6.978,4.255,4.255,0,0,0,2.725-.911l-.7-1.049a3.324,3.324,0,0,1-1.952.7,1.887,1.887,0,0,1-2.025-1.6h4.953v-.561c.065-2.155-1.2-3.554-3.074-3.554Zm0,1.261a1.631,1.631,0,0,1,1.675,1.6H84.918a1.765,1.765,0,0,1,1.814-1.6ZM123.1,665.3v-6h-1.464v3.489a2.529,2.529,0,0,0-2.1-.976,3.492,3.492,0,0,0,0,6.978,2.367,2.367,0,0,0,2.1-.976v.838H123.1V665.3Zm-5.376,0a2.03,2.03,0,1,1,4.05,0,2.03,2.03,0,1,1-4.05,0Zm-49.009,0v-3.351H67.253v.838a2.529,2.529,0,0,0-2.1-.976,3.492,3.492,0,0,0,0,6.978,2.367,2.367,0,0,0,2.1-.976v.838h1.464V665.3Zm-5.441,0a2.03,2.03,0,1,1,4.05,0,2.03,2.03,0,1,1-4.05,0Z" transform="translate(-45.75 -605.68)"/>
  <g id="Group_142318" data-name="Group 142318">
    <rect id="rect19" width="21.991" height="39.51" transform="translate(29.604 5.376)" fill="#ff5a00"/>
    <path id="XMLID_330_" d="M31.068,25.131A25.2,25.2,0,0,1,40.632,5.376a25.122,25.122,0,1,0-15.5,44.886,25,25,0,0,0,15.5-5.376A25.08,25.08,0,0,1,31.068,25.131Z" fill="#eb001b"/>
    <path id="path22" d="M540.232,25.131A25.107,25.107,0,0,1,499.6,44.886a25.184,25.184,0,0,0,0-39.51,25.107,25.107,0,0,1,40.632,19.755Z" transform="translate(-458.968 0)" fill="#f79e1b"/>
  </g>
</svg>
