<svg xmlns="http://www.w3.org/2000/svg" width="16.778" height="21" viewBox="0 0 16.778 21">
  <g id="notifications-outlineR" transform="translate(-6.775 -3.93)">
    <path id="Path_26" data-name="Path 26" d="M20.37,28.336a.911.911,0,0,0-.893.717,1.762,1.762,0,0,1-.352.766,1.329,1.329,0,0,1-1.132.415,1.351,1.351,0,0,1-1.132-.415,1.762,1.762,0,0,1-.352-.766.911.911,0,0,0-.893-.717h0a.917.917,0,0,0-.893,1.118,3.142,3.142,0,0,0,3.27,2.609,3.136,3.136,0,0,0,3.27-2.609.92.92,0,0,0-.893-1.118Z" transform="translate(-2.842 -7.132)" fill="#db1477"/>
    <path id="Path_27" data-name="Path 27" d="M23.342,18.323c-.808-.986-2.4-1.564-2.4-5.98,0-4.532-2.162-6.354-4.178-6.791-.189-.044-.325-.1-.325-.287V5.125A1.24,1.24,0,0,0,15.18,3.93h-.031a1.24,1.24,0,0,0-1.26,1.195v.141c0,.18-.136.243-.325.287-2.021.442-4.178,2.259-4.178,6.791,0,4.415-1.59,4.989-2.4,5.98a.961.961,0,0,0,.835,1.545h14.7A.961.961,0,0,0,23.342,18.323ZM21.3,18.6H9.055a.212.212,0,0,1-.173-.355,5.848,5.848,0,0,0,1.1-1.622,10.275,10.275,0,0,0,.751-4.284,7.02,7.02,0,0,1,1.1-4.216,3.385,3.385,0,0,1,2.031-1.341,1.878,1.878,0,0,0,.976-.51.438.438,0,0,1,.625-.01,1.944,1.944,0,0,0,.987.52,3.385,3.385,0,0,1,2.031,1.341,7.02,7.02,0,0,1,1.1,4.216,10.275,10.275,0,0,0,.751,4.284,5.92,5.92,0,0,0,1.128,1.647A.2.2,0,0,1,21.3,18.6Z" fill="#db1477"/>
  </g>
</svg>
