<svg id="padlock" xmlns="http://www.w3.org/2000/svg" width="20" height="24.381" viewBox="0 0 20 24.381">
  <g id="Group_91" data-name="Group 91">
    <g id="Group_90" data-name="Group 90">
      <path id="Path_49" data-name="Path 49" d="M65.048,9.419H64.1V8.1a8.1,8.1,0,0,0-16.19,0V9.419h-.952a.952.952,0,0,0-.952.952V23.429a.952.952,0,0,0,.952.952h18.1A.952.952,0,0,0,66,23.429V10.372A.952.952,0,0,0,65.048,9.419ZM49.81,8.1a6.19,6.19,0,1,1,12.381,0V9.419H49.81ZM64.1,22.476H47.9V11.324H64.1Z" transform="translate(-46)" fill="#707070"/>
    </g>
  </g>
  <g id="Group_93" data-name="Group 93" transform="translate(7.143 14.043)">
    <g id="Group_92" data-name="Group 92">
      <path id="Path_50" data-name="Path 50" d="M198.857,294.9a2.857,2.857,0,1,0,2.857,2.857A2.86,2.86,0,0,0,198.857,294.9Zm0,3.81a.952.952,0,1,1,.952-.952A.953.953,0,0,1,198.857,298.715Z" transform="translate(-196 -294.905)" fill="#707070"/>
    </g>
  </g>
</svg>
