<svg xmlns="http://www.w3.org/2000/svg" width="140.906" height="34.139" viewBox="0 0 140.906 34.139">
  <g id="paypalimg" transform="translate(-0.002)">
    <path id="Path_39339" data-name="Path 39339" d="M176.59,386.87h9.629c5.17,0,7.116,2.617,6.815,6.462-.5,6.348-4.335,9.86-9.425,9.86h-2.57c-.7,0-1.168.462-1.357,1.715l-1.091,7.283c-.072.472-.321.746-.693.783h-6.05c-.569,0-.771-.435-.621-1.377l3.689-23.347A1.468,1.468,0,0,1,176.59,386.87Z" transform="translate(-164.293 -378.834)" fill="#009ee3" fill-rule="evenodd"/>
    <path id="Path_39340" data-name="Path 39340" d="M322.668,385.13c3.249,0,6.246,1.762,5.836,6.154-.5,5.22-3.293,8.108-7.705,8.12h-3.855c-.554,0-.823.452-.967,1.379l-.746,4.74c-.112.716-.48,1.069-1.022,1.069h-3.587c-.572,0-.771-.365-.644-1.183l2.96-19c.147-.935.5-1.283,1.136-1.283h8.585ZM316.827,395.3h2.921c1.827-.07,3.04-1.335,3.162-3.616a2.206,2.206,0,0,0-2.391-2.411l-2.749.012-.942,6.015Zm21.428,9.838c.328-.3.661-.452.614-.085l-.117.88c-.06.46.122.7.549.7h3.186c.537,0,.8-.216.93-1.046l1.964-12.323c.1-.619-.052-.922-.522-.922h-3.5c-.316,0-.47.176-.552.659l-.129.758c-.067.4-.249.465-.418.067-.594-1.407-2.11-2.038-4.225-1.988-4.914.1-8.227,3.833-8.583,8.615a5.923,5.923,0,0,0,5.871,6.6,6.3,6.3,0,0,0,4.946-1.914h0Zm-2.669-1.9a3.2,3.2,0,0,1-3.283-3.756,4.574,4.574,0,0,1,4.4-3.756,3.2,3.2,0,0,1,3.283,3.756,4.572,4.572,0,0,1-4.4,3.756Zm16.032-10.936h-3.231c-.666,0-.937.5-.726,1.109l4.012,11.747-3.935,5.59c-.331.467-.075.892.39.892h3.631a1.111,1.111,0,0,0,1.079-.529l12.338-17.7c.38-.544.2-1.116-.423-1.116h-3.437c-.589,0-.825.234-1.163.723l-5.145,7.457-2.3-7.474a.984.984,0,0,0-1.089-.7Z" transform="translate(-268.566 -377.527)" fill="#113984" fill-rule="evenodd"/>
    <path id="Path_39341" data-name="Path 39341" d="M545.335,385.115c3.249,0,6.246,1.762,5.836,6.154-.5,5.22-3.293,8.108-7.705,8.12h-3.853c-.554,0-.823.452-.967,1.379l-.746,4.74c-.112.716-.48,1.069-1.022,1.069h-3.587c-.572,0-.771-.365-.644-1.183l2.965-19c.147-.935.5-1.283,1.136-1.283h8.585Zm-5.841,10.171h2.92c1.827-.07,3.04-1.335,3.162-3.616a2.206,2.206,0,0,0-2.391-2.411l-2.749.012-.942,6.015Zm21.428,9.838c.328-.3.661-.452.614-.085l-.117.88c-.06.46.122.7.549.7h3.186c.537,0,.8-.216.93-1.046l1.964-12.323c.1-.619-.052-.922-.522-.922h-3.5c-.316,0-.47.176-.552.659l-.129.758c-.067.4-.249.465-.418.067-.594-1.407-2.11-2.038-4.225-1.988-4.914.1-8.227,3.833-8.583,8.615a5.923,5.923,0,0,0,5.871,6.6,6.3,6.3,0,0,0,4.946-1.914h0Zm-2.667-1.9a3.2,3.2,0,0,1-3.283-3.756,4.574,4.574,0,0,1,4.4-3.756,3.2,3.2,0,0,1,3.283,3.756,4.574,4.574,0,0,1-4.4,3.756Zm14.7,3.415h-3.679a.435.435,0,0,1-.45-.5l3.231-20.471a.634.634,0,0,1,.611-.5h3.679a.435.435,0,0,1,.45.5l-3.231,20.471a.634.634,0,0,1-.611.5Z" transform="translate(-435.891 -377.512)" fill="#009ee3" fill-rule="evenodd"/>
    <path id="Path_39342" data-name="Path 39342" d="M149.755,354.54h9.639c2.714,0,5.935.087,8.088,1.988A6.533,6.533,0,0,1,169.5,362c-.592,7.36-4.993,11.483-10.9,11.483h-4.752c-.81,0-1.345.537-1.573,1.988l-1.327,8.451c-.087.547-.323.87-.746.91h-5.948c-.659,0-.892-.5-.721-1.6l4.275-27.087A1.711,1.711,0,0,1,149.755,354.54Z" transform="translate(-143.48 -354.54)" fill="#113984" fill-rule="evenodd"/>
    <path id="Path_39343" data-name="Path 39343" d="M179.43,398.9l1.683-10.655a1.473,1.473,0,0,1,1.678-1.382h9.629a9.392,9.392,0,0,1,3.892.708c-.967,6.552-5.2,10.191-10.752,10.191h-4.745A1.4,1.4,0,0,0,179.43,398.9Z" transform="translate(-170.493 -378.827)" fill="#172c70" fill-rule="evenodd"/>
  </g>
</svg>
