<svg id="phoneIcon2" xmlns="http://www.w3.org/2000/svg" width="53.445" height="53.445" viewBox="0 0 53.445 53.445">
  <g id="Path_61" data-name="Path 61" transform="translate(0)" fill="none">
    <path d="M26.723,0A26.723,26.723,0,1,0,53.445,26.723,26.723,26.723,0,0,0,26.723,0Z" stroke="none"/>
    <path d="M 26.72262382507324 0.9999923706054688 C 23.24965476989746 0.9999923706054688 19.8810920715332 1.679954528808594 16.71052551269531 3.020992279052734 C 13.64761352539062 4.316493988037109 10.89662551879883 6.171333312988281 8.533973693847656 8.533973693847656 C 6.171333312988281 10.89662551879883 4.316493988037109 13.64761352539062 3.020992279052734 16.71052551269531 C 1.679954528808594 19.8810920715332 0.9999923706054688 23.24965476989746 0.9999923706054688 26.72262382507324 C 0.9999923706054688 30.19559288024902 1.679954528808594 33.56415557861328 3.020992279052734 36.73472595214844 C 4.316493988037109 39.79763412475586 6.171333312988281 42.54862213134766 8.533973693847656 44.91126251220703 C 10.89662551879883 47.27390289306641 13.64761352539062 49.12874221801758 16.71052551269531 50.42424392700195 C 19.8810920715332 51.76528549194336 23.24965476989746 52.44524383544922 26.72262382507324 52.44524383544922 C 30.19559288024902 52.44524383544922 33.56415557861328 51.76528549194336 36.73472595214844 50.42424392700195 C 39.79763412475586 49.12874221801758 42.54862213134766 47.27390289306641 44.91126251220703 44.91126251220703 C 47.27390289306641 42.54862213134766 49.12874221801758 39.79763412475586 50.42424392700195 36.73472595214844 C 51.76528549194336 33.56415557861328 52.44524383544922 30.19559288024902 52.44524383544922 26.72262382507324 C 52.44524383544922 23.24965476989746 51.76528549194336 19.8810920715332 50.42424392700195 16.71052551269531 C 49.12874221801758 13.64761352539062 47.27390289306641 10.89662551879883 44.91126251220703 8.533973693847656 C 42.54862213134766 6.171333312988281 39.79763412475586 4.316493988037109 36.73472595214844 3.020992279052734 C 33.56415557861328 1.679954528808594 30.19559288024902 0.9999923706054688 26.72262382507324 0.9999923706054688 M 26.72262382507324 -7.62939453125e-06 C 41.48112487792969 -7.62939453125e-06 53.44524383544922 11.9641227722168 53.44524383544922 26.72262382507324 C 53.44524383544922 41.48112487792969 41.48112487792969 53.44524383544922 26.72262382507324 53.44524383544922 C 11.9641227722168 53.44524383544922 -7.62939453125e-06 41.48112487792969 -7.62939453125e-06 26.72262382507324 C -7.62939453125e-06 11.9641227722168 11.9641227722168 -7.62939453125e-06 26.72262382507324 -7.62939453125e-06 Z" stroke="none" fill="#db1477"/>
  </g>
  <path id="Icon_awesome-fax" data-name="Icon awesome-fax" d="M3.238,6.477H1.619A1.619,1.619,0,0,0,0,8.1V24.287a1.619,1.619,0,0,0,1.619,1.619H3.238a1.619,1.619,0,0,0,1.619-1.619V8.1A1.619,1.619,0,0,0,3.238,6.477ZM24.287,8.1V3.909a1.62,1.62,0,0,0-.474-1.145L21.523.474A1.619,1.619,0,0,0,20.378,0H8.1A1.619,1.619,0,0,0,6.477,1.619V24.287A1.619,1.619,0,0,0,8.1,25.906H24.287a1.619,1.619,0,0,0,1.619-1.619V9.715A1.619,1.619,0,0,0,24.287,8.1ZM14.572,21.858a.809.809,0,0,1-.81.81H12.144a.809.809,0,0,1-.81-.81V20.239a.809.809,0,0,1,.81-.81h1.619a.809.809,0,0,1,.81.81Zm0-6.477a.809.809,0,0,1-.81.81H12.144a.809.809,0,0,1-.81-.81V13.763a.809.809,0,0,1,.81-.81h1.619a.809.809,0,0,1,.81.81Zm6.477,6.477a.809.809,0,0,1-.81.81H18.62a.809.809,0,0,1-.81-.81V20.239a.809.809,0,0,1,.81-.81h1.619a.809.809,0,0,1,.81.81Zm0-6.477a.809.809,0,0,1-.81.81H18.62a.809.809,0,0,1-.81-.81V13.763a.809.809,0,0,1,.81-.81h1.619a.809.809,0,0,1,.81.81Zm.81-5.667H8.905V2.429H19.43V4.048a.809.809,0,0,0,.81.81h1.619Z" transform="translate(12.78 13.77)" fill="#db1477"/>
</svg>
