<svg id="phoneIcon" xmlns="http://www.w3.org/2000/svg" width="53.445" height="53.445" viewBox="0 0 53.445 53.445">
  <g id="Path_61" data-name="Path 61" transform="translate(0)" fill="none">
    <path d="M26.723,0A26.723,26.723,0,1,0,53.445,26.723,26.723,26.723,0,0,0,26.723,0Z" stroke="none"/>
    <path d="M 26.72262382507324 0.9999923706054688 C 23.24965476989746 0.9999923706054688 19.8810920715332 1.679954528808594 16.71052551269531 3.020992279052734 C 13.64761352539062 4.316493988037109 10.89662551879883 6.171333312988281 8.533973693847656 8.533973693847656 C 6.171333312988281 10.89662551879883 4.316493988037109 13.64761352539062 3.020992279052734 16.71052551269531 C 1.679954528808594 19.8810920715332 0.9999923706054688 23.24965476989746 0.9999923706054688 26.72262382507324 C 0.9999923706054688 30.19559288024902 1.679954528808594 33.56415557861328 3.020992279052734 36.73472595214844 C 4.316493988037109 39.79763412475586 6.171333312988281 42.54862213134766 8.533973693847656 44.91126251220703 C 10.89662551879883 47.27390289306641 13.64761352539062 49.12874221801758 16.71052551269531 50.42424392700195 C 19.8810920715332 51.76528549194336 23.24965476989746 52.44524383544922 26.72262382507324 52.44524383544922 C 30.19559288024902 52.44524383544922 33.56415557861328 51.76528549194336 36.73472595214844 50.42424392700195 C 39.79763412475586 49.12874221801758 42.54862213134766 47.27390289306641 44.91126251220703 44.91126251220703 C 47.27390289306641 42.54862213134766 49.12874221801758 39.79763412475586 50.42424392700195 36.73472595214844 C 51.76528549194336 33.56415557861328 52.44524383544922 30.19559288024902 52.44524383544922 26.72262382507324 C 52.44524383544922 23.24965476989746 51.76528549194336 19.8810920715332 50.42424392700195 16.71052551269531 C 49.12874221801758 13.64761352539062 47.27390289306641 10.89662551879883 44.91126251220703 8.533973693847656 C 42.54862213134766 6.171333312988281 39.79763412475586 4.316493988037109 36.73472595214844 3.020992279052734 C 33.56415557861328 1.679954528808594 30.19559288024902 0.9999923706054688 26.72262382507324 0.9999923706054688 M 26.72262382507324 -7.62939453125e-06 C 41.48112487792969 -7.62939453125e-06 53.44524383544922 11.9641227722168 53.44524383544922 26.72262382507324 C 53.44524383544922 41.48112487792969 41.48112487792969 53.44524383544922 26.72262382507324 53.44524383544922 C 11.9641227722168 53.44524383544922 -7.62939453125e-06 41.48112487792969 -7.62939453125e-06 26.72262382507324 C -7.62939453125e-06 11.9641227722168 11.9641227722168 -7.62939453125e-06 26.72262382507324 -7.62939453125e-06 Z" stroke="none" fill="#db1477"/>
  </g>
  <g id="vuesax_bulk_call-calling" data-name="vuesax/bulk/call-calling" transform="translate(11.451 11.453)">
    <g id="vuesax_bulk_call-calling-2" data-name="vuesax/bulk/call-calling">
      <g id="call-calling">
        <path id="Vector" d="M4.581,5.574a4.429,4.429,0,0,0-1.26-2.3A3.551,3.551,0,0,0,.98,1.96.98.98,0,1,1,.98,0,5.408,5.408,0,0,1,4.759,1.921,6,6,0,0,1,6.553,5.561a.994.994,0,0,1-.993.993A.98.98,0,0,1,4.581,5.574Z" transform="translate(16.861 7.126)" fill="#db1477"/>
        <path id="Vector-2" data-name="Vector" d="M9.162,10.155A8.192,8.192,0,0,0,.98,1.972.986.986,0,0,1,.967,0,10.166,10.166,0,0,1,11.122,10.155a.98.98,0,1,1-1.96,0Z" transform="translate(16.873 2.545)" fill="#db1477"/>
        <path id="Vector-3" data-name="Vector" d="M8.3,19.7q-.687-.611-1.336-1.26a36.157,36.157,0,0,1-3.55-4.161A22.686,22.686,0,0,1,.916,9.938,10.718,10.718,0,0,1,0,5.777,6.583,6.583,0,0,1,.458,3.321,5.857,5.857,0,0,1,1.921,1.2,3.728,3.728,0,0,1,4.568,0,2.391,2.391,0,0,1,5.6.229a2.074,2.074,0,0,1,.853.713L9.4,5.1a4.355,4.355,0,0,1,.509.891,2.011,2.011,0,0,1,.178.776,1.727,1.727,0,0,1-.267.9,4.328,4.328,0,0,1-.713.9L8.144,9.582a.681.681,0,0,0-.2.509,1.155,1.155,0,0,0,.038.293c.038.1.076.178.1.255a10.56,10.56,0,0,0,1.183,1.629c.573.662,1.183,1.336,1.845,2.011.458.445.9.878,1.349,1.26Z" transform="translate(2.545 2.545)" fill="#db1477" opacity="0.4"/>
        <path id="Vector-4" data-name="Vector" d="M15.55,6.541a3.108,3.108,0,0,1-.127.305,5.25,5.25,0,0,1-.865,1.3,5.737,5.737,0,0,1-2.087,1.5c-.013,0-.025.013-.038.013a6.428,6.428,0,0,1-2.443.471A10.6,10.6,0,0,1,5.841,9.2a22.351,22.351,0,0,1-4.377-2.52C.967,6.312.471,5.943,0,5.548L4.161,1.387A7.149,7.149,0,0,0,5.1,2c.064.025.14.064.229.1a.879.879,0,0,0,.318.051.7.7,0,0,0,.522-.216L7.139.98A3.9,3.9,0,0,1,8.055.267,1.7,1.7,0,0,1,8.958,0a2.031,2.031,0,0,1,.776.165,4.921,4.921,0,0,1,.891.5l4.212,2.99a1.93,1.93,0,0,1,.7.814,2.611,2.611,0,0,1,.2.993A3.232,3.232,0,0,1,15.55,6.541Z" transform="translate(12.216 17.866)" fill="#db1477"/>
        <path id="Vector-5" data-name="Vector" d="M30.54,0V30.54H0V0Z" fill="#db1477" opacity="0"/>
      </g>
    </g>
  </g>
</svg>
