<svg xmlns="http://www.w3.org/2000/svg" width="24.123" height="23.117" viewBox="0 0 24.123 23.117">
  <g id="shopping-cartW" transform="translate(1 1)">
    <path id="Path_16" data-name="Path 16" d="M14.011,31.006A1.006,1.006,0,1,1,13.006,30,1.006,1.006,0,0,1,14.011,31.006Z" transform="translate(-4.961 -10.894)" fill="none" stroke="#fff" stroke-linecap="round" stroke-linejoin="round" stroke-width="2"/>
    <path id="Path_17" data-name="Path 17" d="M30.511,31.006A1.006,1.006,0,1,1,29.506,30,1.006,1.006,0,0,1,30.511,31.006Z" transform="translate(-10.399 -10.894)" fill="none" stroke="#fff" stroke-linecap="round" stroke-linejoin="round" stroke-width="2"/>
    <path id="Path_18" data-name="Path 18" d="M1.5,1.5H5.522L8.217,14.965a2.011,2.011,0,0,0,2.011,1.619H20a2.011,2.011,0,0,0,2.011-1.619l1.609-8.437H6.528" transform="translate(-1.5 -1.5)" fill="none" stroke="#fff" stroke-linecap="round" stroke-linejoin="round" stroke-width="2"/>
  </g>
</svg>
